<?xml version="1.0" encoding="UTF-8" standalone="no"?>
<!-- Created with Inkscape (http://www.inkscape.org/) -->

<svg
   width="128"
   height="128"
   viewBox="0 0 33.866667 33.866667"
   version="1.1"
   id="svg1"
   xml:space="preserve"
   xmlns="http://www.w3.org/2000/svg"
   xmlns:svg="http://www.w3.org/2000/svg"><defs
     id="defs1" /><g
     id="layer1"><g
       style="fill:#000000"
       id="g2"
       transform="matrix(0.45311486,0,0,0.45311486,22.928897,11.06267)"><g
         id="g1">
	<path
   d="m 10.398,22.811 h 4.618 v 4.964 H 10.398 Z M 21.058,1.594 C 19.854,0.532 17.612,0 14.33,0 10.619,0 8.125,0.514 6.848,1.543 5.571,2.57 4.932,4.57 4.932,7.543 L 4.911,8.551 H 9.488 L 9.468,7.502 c 0,-1.424 0.303,-2.377 0.907,-2.854 0.604,-0.477 1.814,-0.717 3.632,-0.717 1.936,0 3.184,0.228 3.74,0.676 0.559,0.451 0.837,1.457 0.837,3.017 0,1.883 -0.745,3.133 -2.237,3.752 l -1.797,0.766 c -1.882,0.781 -3.044,1.538 -3.489,2.27 -0.442,0.732 -0.665,2.242 -0.665,4.529 h 4.68 v -0.646 c 0,-1.41 0.987,-2.533 2.965,-3.365 2.03,-0.861 3.343,-1.746 3.935,-2.651 0.592,-0.908 0.888,-2.498 0.888,-4.771 C 22.863,4.625 22.261,2.655 21.058,1.594 Z"
   id="path1" />
</g></g><g
       style="fill:#000000"
       id="g5"
       transform="matrix(-0.45311486,0,0,-0.45311486,10.97114,23.656037)"><g
         id="g4">
	<path
   d="m 10.398,22.811 h 4.618 v 4.964 H 10.398 Z M 21.058,1.594 C 19.854,0.532 17.612,0 14.33,0 10.619,0 8.125,0.514 6.848,1.543 5.571,2.57 4.932,4.57 4.932,7.543 L 4.911,8.551 H 9.488 L 9.468,7.502 c 0,-1.424 0.303,-2.377 0.907,-2.854 0.604,-0.477 1.814,-0.717 3.632,-0.717 1.936,0 3.184,0.228 3.74,0.676 0.559,0.451 0.837,1.457 0.837,3.017 0,1.883 -0.745,3.133 -2.237,3.752 l -1.797,0.766 c -1.882,0.781 -3.044,1.538 -3.489,2.27 -0.442,0.732 -0.665,2.242 -0.665,4.529 h 4.68 v -0.646 c 0,-1.41 0.987,-2.533 2.965,-3.365 2.03,-0.861 3.343,-1.746 3.935,-2.651 0.592,-0.908 0.888,-2.498 0.888,-4.771 C 22.863,4.625 22.261,2.655 21.058,1.594 Z"
   id="path3" />
</g></g><g
       style="fill:#000000"
       id="g7"
       transform="matrix(0.04645743,0,0,0.04645743,9.9329421,10.400482)"><g
         id="g6">
	<path
   d="M 64.048,216.749 H 4.076 c -1.657,0 -3,1.344 -3,3 v 59.973 c 0,1.658 1.343,3 3,3 h 59.972 c 1.656,0 3,-1.342 3,-3 v -59.973 c 0,-1.656 -1.344,-3 -3,-3 z"
   id="path1-6" />
	<path
   d="M 64.048,17.675 H 4.076 C 1.825,17.675 0,19.499 0,21.749 v 59.973 c 0,2.252 1.825,4.076 4.076,4.076 h 59.972 c 2.251,0 4.075,-1.824 4.075,-4.076 V 21.749 c 0,-2.25 -1.824,-4.074 -4.075,-4.074 z M 19.138,66.661 V 36.809 h 29.849 v 29.852 z"
   id="path2" />
	<path
   d="M 64.048,116.675 H 4.076 C 1.825,116.675 0,118.499 0,120.749 v 59.973 c 0,2.252 1.825,4.076 4.076,4.076 h 59.972 c 2.251,0 4.075,-1.824 4.075,-4.076 v -59.973 c 0,-2.25 -1.824,-4.074 -4.075,-4.074 z m -44.91,48.986 v -29.852 h 29.849 v 29.852 z"
   id="path3-2" />
	<path
   d="m 297.396,231.036 h -186.67 c -1.657,0 -3,1.342 -3,3 v 31.4 c 0,1.656 1.343,3 3,3 h 186.67 c 1.656,0 3,-1.344 3,-3 v -31.4 c 0,-1.658 -1.343,-3 -3,-3 z"
   id="path4" />
	<path
   d="m 110.729,169.438 h 186.667 c 1.656,0 3,-1.342 3,-3 v -31.406 c 0,-1.656 -1.344,-3 -3,-3 H 110.729 c -1.657,0 -3,1.344 -3,3 v 31.406 c 0,1.659 1.342,3 3,3 z"
   id="path5" />
	<path
   d="m 110.729,70.438 h 186.667 c 1.656,0 3,-1.342 3,-3 V 36.032 c 0,-1.656 -1.344,-3 -3,-3 H 110.729 c -1.657,0 -3,1.344 -3,3 v 31.406 c 0,1.659 1.342,3 3,3 z"
   id="path6" />
</g></g></g></svg>
