<?xml version="1.0" encoding="UTF-8" standalone="no"?>
<!-- Created with Inkscape (http://www.inkscape.org/) -->

<svg
   width="127.99999"
   height="127.99999"
   viewBox="0 0 33.866664 33.866664"
   version="1.1"
   id="svg1"
   xml:space="preserve"
   xmlns="http://www.w3.org/2000/svg"
   xmlns:svg="http://www.w3.org/2000/svg"><defs
     id="defs1" /><g
     id="layer1"><g
       style="fill:#000000"
       id="g9"
       transform="matrix(0.06681501,0,0,0.06339522,0.69438954,1.3876829)"><polygon
         points="478.613,490 489.439,479.174 255.809,244.996 489.439,10.811 478.613,0 245,234.161 11.387,0 0.561,10.811 234.191,244.996 0.561,479.174 11.387,490 245,255.832 "
         id="polygon1" /></g><g
       style="fill:#000000;stroke:#000000;stroke-width:7.68"
       id="g10"
       transform="matrix(0.05082421,0,0,0.05082421,4.0651021,5.6161739)"><g
         id="SVGRepo_bgCarrier"
         stroke-width="0" /><g
         id="SVGRepo_tracerCarrier"
         stroke-linecap="round"
         stroke-linejoin="round" /><g
         id="SVGRepo_iconCarrier"> <g
   id="g2"> <g
   id="g1"> <path
   d="M 423.387,427.499 V 384.15 c 37.891,-43.463 58.698,-98.412 58.698,-155.326 v -2.737 C 482.085,101.422 380.664,0 256.001,0 131.338,0 29.916,101.422 29.916,226.085 v 2.737 c 0,56.916 20.807,111.864 58.698,155.326 v 43.349 c -37.465,4.58 -66.584,36.57 -66.584,75.251 0,5.111 4.142,9.252 9.252,9.252 h 449.437 c 5.109,0 9.252,-4.141 9.252,-9.252 -10e-4,-38.681 -29.119,-70.669 -66.584,-75.249 z M 48.419,228.822 v -2.737 c 0,-114.462 93.121,-207.582 207.582,-207.582 114.461,0 207.582,93.12 207.582,207.582 v 2.737 c 0,52.692 -19.386,103.589 -54.667,143.774 H 103.086 C 67.805,332.411 48.419,281.514 48.419,228.822 Z m 356.465,162.279 v 35.813 H 107.117 V 391.101 Z M 41.279,493.497 c 4.437,-27.229 28.122,-48.081 56.586,-48.081 h 316.27 c 28.464,0 52.149,20.851 56.586,48.081 z"
   id="path1" /> </g> </g> <g
   id="g4"> <g
   id="g3"> <path
   d="m 433.369,172.522 c -1.486,-4.888 -6.651,-7.646 -11.542,-6.16 -4.889,1.486 -7.647,6.655 -6.16,11.542 15.487,50.937 4.023,107.836 -29.918,148.495 -3.275,3.923 -2.75,9.757 1.173,13.031 1.731,1.444 3.833,2.149 5.923,2.149 2.647,0 5.277,-1.131 7.106,-3.322 37.893,-45.393 50.699,-108.898 33.418,-165.735 z"
   id="path2" /> </g> </g> <g
   id="g6"> <g
   id="g5"> <path
   d="m 411.938,127.235 c -15.842,-24.552 -39.08,-44.822 -69.068,-60.246 -4.543,-2.335 -10.122,-0.545 -12.459,3.997 -2.336,4.542 -0.546,10.12 3.997,12.458 27.068,13.921 47.922,32.029 61.983,53.823 1.77,2.742 4.745,4.237 7.782,4.237 1.718,0 3.456,-0.479 5.007,-1.479 4.293,-2.77 5.528,-8.497 2.758,-12.79 z"
   id="path4" /> </g> </g> <g
   id="g8"> <g
   id="g7"> <path
   d="m 306.513,54.035 c -12.824,-2.996 -26.06,-4.515 -39.338,-4.515 -5.109,0 -9.252,4.141 -9.252,9.252 0,5.111 4.142,9.252 9.252,9.252 11.863,0 23.682,1.357 35.128,4.031 0.708,0.165 1.416,0.244 2.113,0.244 4.201,0 8.004,-2.882 9.001,-7.15 1.162,-4.974 -1.928,-9.95 -6.904,-11.114 z"
   id="path6" /> </g> </g> </g></g></g></svg>
